{
  "asset": {
    "generator": "Khronos glTF Blender I/O v1.8.19",
    "version": "2.0"
  },
  "scene": 0,
  "scenes": [
    {
      "name": "Scene",
      "nodes": [0, 1, 2]
    }
  ],
  "nodes": [
    {
      "mesh": 0,
      "name": "Cube",
      "scale": [1, 1, 0.4542919397354126]
    },
    {
      "mesh": 1,
      "name": "Circle",
      "translation": [0, 0.012962271459400654, 0]
    },
    {
      "mesh": 2,
      "name": "Cube.001",
      "scale": [1, 1, 0.4542919397354126]
    }
  ],
  "materials": [
    {
      "doubleSided": true,
      "name": "Material",
      "pbrMetallicRoughness": {
        "baseColorFactor": [0, 0, 0, 1],
        "metallicFactor": 0,
        "roughnessFactor": 0.4000000059604645
      }
    },
    {
      "doubleSided": true,
      "name": "Material.002",
      "pbrMetallicRoughness": {
        "baseColorFactor": [1, 0.5, 0, 1],
        "metallicFactor": 0,
        "roughnessFactor": 0.5
      }
    },
    {
      "doubleSided": true,
      "name": "Material.001",
      "pbrMetallicRoughness": {
        "baseColorFactor": [
          0.800000011920929, 0.800000011920929, 0.800000011920929, 1
        ],
        "metallicFactor": 0,
        "roughnessFactor": 0.5
      }
    }
  ],
  "meshes": [
    {
      "name": "Cube",
      "primitives": [
        {
          "attributes": {
            "POSITION": 0,
            "NORMAL": 1,
            "TEXCOORD_0": 2
          },
          "indices": 3,
          "material": 0
        }
      ]
    },
    {
      "name": "Circle",
      "primitives": [
        {
          "attributes": {
            "POSITION": 4,
            "NORMAL": 5,
            "TEXCOORD_0": 6
          },
          "indices": 7,
          "material": 1
        }
      ]
    },
    {
      "name": "Cube.001",
      "primitives": [
        {
          "attributes": {
            "POSITION": 8,
            "NORMAL": 9,
            "TEXCOORD_0": 10
          },
          "indices": 11,
          "material": 2
        }
      ]
    }
  ],
  "accessors": [
    {
      "bufferView": 0,
      "componentType": 5126,
      "count": 332,
      "max": [1, 0.8921991586685181, 2.1864709854125977],
      "min": [-1, -1.4671369791030884, -2.1864709854125977],
      "type": "VEC3"
    },
    {
      "bufferView": 1,
      "componentType": 5126,
      "count": 332,
      "type": "VEC3"
    },
    {
      "bufferView": 2,
      "componentType": 5126,
      "count": 332,
      "type": "VEC2"
    },
    {
      "bufferView": 3,
      "componentType": 5123,
      "count": 570,
      "type": "SCALAR"
    },
    {
      "bufferView": 4,
      "componentType": 5126,
      "count": 1296,
      "max": [0.9304209351539612, 1.7036616802215576, 0.9304205179214478],
      "min": [-0.9304196834564209, 0.874384343624115, -0.930420994758606],
      "type": "VEC3"
    },
    {
      "bufferView": 5,
      "componentType": 5126,
      "count": 1296,
      "type": "VEC3"
    },
    {
      "bufferView": 6,
      "componentType": 5126,
      "count": 1296,
      "type": "VEC2"
    },
    {
      "bufferView": 7,
      "componentType": 5123,
      "count": 2016,
      "type": "SCALAR"
    },
    {
      "bufferView": 8,
      "componentType": 5126,
      "count": 12,
      "max": [0.8072183132171631, 0.6994174718856812, 1.850501298904419],
      "min": [-0.8072183132171631, -1.2199524641036987, -1.850501298904419],
      "type": "VEC3"
    },
    {
      "bufferView": 9,
      "componentType": 5126,
      "count": 12,
      "type": "VEC3"
    },
    {
      "bufferView": 10,
      "componentType": 5126,
      "count": 12,
      "type": "VEC2"
    },
    {
      "bufferView": 11,
      "componentType": 5123,
      "count": 24,
      "type": "SCALAR"
    }
  ],
  "bufferViews": [
    {
      "buffer": 0,
      "byteLength": 3984,
      "byteOffset": 0
    },
    {
      "buffer": 0,
      "byteLength": 3984,
      "byteOffset": 3984
    },
    {
      "buffer": 0,
      "byteLength": 2656,
      "byteOffset": 7968
    },
    {
      "buffer": 0,
      "byteLength": 1140,
      "byteOffset": 10624
    },
    {
      "buffer": 0,
      "byteLength": 15552,
      "byteOffset": 11764
    },
    {
      "buffer": 0,
      "byteLength": 15552,
      "byteOffset": 27316
    },
    {
      "buffer": 0,
      "byteLength": 10368,
      "byteOffset": 42868
    },
    {
      "buffer": 0,
      "byteLength": 4032,
      "byteOffset": 53236
    },
    {
      "buffer": 0,
      "byteLength": 144,
      "byteOffset": 57268
    },
    {
      "buffer": 0,
      "byteLength": 144,
      "byteOffset": 57412
    },
    {
      "buffer": 0,
      "byteLength": 96,
      "byteOffset": 57556
    },
    {
      "buffer": 0,
      "byteLength": 48,
      "byteOffset": 57652
    }
  ],
  "buffers": [
    {
      "byteLength": 57700,
      "uri": "data:application/octet-stream;base64,"
    }
  ]
}
